<?xml version="1.0" encoding="utf-8"?>
<!-- Generator: Adobe Illustrator 28.0.0, SVG Export Plug-In . SVG Version: 6.00 Build 0)  -->
<svg version="1.1" id="Layer_1" xmlns="http://www.w3.org/2000/svg" xmlns:xlink="http://www.w3.org/1999/xlink" x="0px" y="0px"
	 viewBox="0 0 786.8 412.5" style="enable-background:new 0 0 786.8 412.5;" xml:space="preserve">
<style type="text/css">
	.st0{fill:#BF5700;}
</style>
<g>
	<path class="st0" d="M786.7,4.9c-0.3-1.9-4.2-4.2-6.7-4.6c-5-0.7-10.3-0.2-15.4,0c-60.4,2.1-120.9,4.1-181.3,6.5
		c-3.6,0.1-8.2,2.9-10.4,5.9c-9.9,13.4-19.1,27.3-28.3,41.2c-2.6,3.9-5.4,5.3-10,5.4c-29.4,0.5-58.8,1.3-88.2,2.3
		c-2.4,0.1-4.8,2.2-7.2,3.4c1.1,2.2,1.7,5,3.4,6.6c8.6,8.3,17.2,16.5,26.4,24.2c4.7,3.9,4.7,7.3,2.5,12.6
		c-20.8,49.7-41.2,99.6-62,149.3c-1.8,4.2-1.2,6.5,2.3,9.2c7.4,5.8,14.4,11.9,21.8,18.1c-14.1,15.6-27.6,30.6-41,45.4
		c-13.2-14.9-25.8-29-38.7-43.5c5-4.6,9.8-9.2,14.8-13.7c1.2-1.1,2.4-2.1,3.6-3.2c1.8-1.7,3.5-3.5,5.4-5.2c0,0,0-0.1,0.1-0.1
		c0,0,0.2-0.4,0.3-0.7c0.8-2.2-0.6-5.2-0.7-5.4c-23-48.9-41.3-100-62.1-149.9c-1-2.3-1.3-4.1-0.9-5.8c0.6-2.4,2.4-3.8,3-4.2
		c11.5-9.4,19.9-22.1,30.8-32.2c-2.8-1.1-5.7-3.1-8.5-3.2c-29.2-1-58.4-1.8-87.6-2.4c-4.2-0.1-6.6-1.5-8.9-5
		c-9.5-14.2-19-28.4-29-42.2c-1.9-2.6-5.8-4.9-9-5.1c-19.5-1.1-39-1.5-58.6-2.2c-40.9-1.5-81.8-3-122.7-4.5c-0.1,0-6.2,0.1-18.4,0.3
		c-0.8,0-2.6,0.1-3.8,1.3C0.2,4.9,0,6.5,0,7.4c0.4,0.7,1,1.5,2,2.2c0,0,1.5,1.1,3.8,1.5C65.4,19.6,157.3,26,157.3,26
		c4.8,0.5,7.8,2.2,10.4,6.2c11,16.7,22.4,33,33.3,49.7c2.7,4.2,5.8,5.6,10.7,5.2c8-0.6,16-0.5,24.1-0.6c6.2-0.1,12.4,0,20.2,0
		c-10.6,9-20.1,16.9-29.3,25.1c-1.8,1.7-2.5,4.6-3.7,7c2.3,0.9,4.6,2.5,7,2.6c11.9,0.5,23.9,0.8,35.8,0.9c4,0,5.7,1.7,7.1,5.2
		c19,49.3,38.1,98.6,57.4,147.8c1.4,3.6,1,5.5-2.1,7.6c-9.7,6.6-19.1,13.6-28.7,20.3c-8.3,5.9-8.6,8.7-1.4,15.8
		c24.6,24,49.2,47.9,73.7,72c7.1,7,13.9,14.4,21,21.8c9.2-9.8,16.7-18.5,24.9-26.5c23.8-23.4,47.8-46.5,71.7-69.7
		c6.4-6.3,6.2-9.5-0.9-14.7c-9.5-6.8-19-13.8-28.7-20.3c-3.7-2.5-4.5-4.6-2.9-9c19.3-49.2,38.4-98.5,57.4-147.8
		c1.4-3.5,3.3-4.5,6.8-4.6c10.7-0.1,21.4-0.3,32.1-0.9c3.6-0.2,7.2-1.7,10.7-2.7c-2.3-3.3-4.2-7.1-7.1-9.8
		c-8.1-7.4-16.6-14.3-25.2-21.6c15.1,0,29.4-0.2,43.7,0.1c4.6,0.1,7.7-1,10.3-5c9.8-14.9,20.4-29.4,29.8-44.6
		c5-8.2,10.8-11.5,20.5-12.4c48.1-4.2,96.2-9.4,144.2-14.2C783.4,9,787.4,9,786.7,4.9"/>
</g>
</svg>
